<?xml version="1.0" encoding="UTF-8"?>
<svg id="Layer_1" xmlns="http://www.w3.org/2000/svg" version="1.1" viewBox="0 0 595.28 184.87">
  <!-- Generator: Adobe Illustrator 29.1.0, SVG Export Plug-In . SVG Version: 2.1.0 Build 142)  -->
  <defs>
    <style>
      .st0 {
        fill: #99ca3c;
      }

      .st1 {
        fill: #09090a;
      }

      .st2 {
        fill: #050505;
      }

      .st3 {
        fill: #9ec53f;
      }

      .st4 {
        fill: #0a0a0b;
      }
    </style>
  </defs>
  <g>
    <path class="st3" d="M123.74,54.59c5.05.28,8.86,1.4,11.46,3.37,2.59,1.97,4.55,4.62,5.87,7.96,2.89,7.2,2.26,15.38-1.88,24.53-5.57,10.51-14.65,16.15-27.25,16.91h-13.47l-4.96,19.68h-16.7l12.79-52.61h17.12l-4.59,18.43h8.56c4.18-.14,7.55-1.31,10.12-3.5,2.58-2.09,4.26-4.59,5.06-7.52,2.37-8.11-.04-12.21-7.2-12.32h-7.98v-.05h-19.89l3.65-15.08,29.28.21Z"/>
    <path class="st3" d="M166.34,107.2c-5.05-.31-8.87-1.44-11.46-3.39-2.59-1.95-4.55-4.59-5.87-7.93-2.89-7.2-2.26-15.4,1.88-24.58,5.57-10.47,14.65-16.09,27.25-16.86h30.27l-12.79,52.98-29.28-.21ZM186.59,74.53h-.05l1.31-5.58h-8.09c-4.35.07-7.85,1.24-10.49,3.5-2.58,2.05-4.26,4.56-5.06,7.52-2.37,8.11.03,12.21,7.2,12.32h10.96l4.23-17.75Z"/>
    <path class="st3" d="M228.66,54.33h16.86l-3.86,15.14h-9.19c-1.04,0-2,.37-2.87,1.1-.83.73-1.39,1.65-1.67,2.77l-8.3,34.08h-16.91l9.24-38.42c2.4-8.56,7.97-13.45,16.7-14.67Z"/>
    <path class="st3" d="M243.48,89.35l12.89-52.41h16.91c-2.86,11.17-4.33,16.95-4.44,17.33h12.48l-3.76,15.4h-12.42c-.91,3.72-1.65,6.81-2.24,9.26-.59,2.45-1.13,4.68-1.62,6.68s-.78,3.25-.89,3.73c-.1.87.11,1.65.63,2.35.52.7,1.25,1.04,2.19,1.04h8.77l-3.55,14.67h-11.38c-4.66,0-8.34-1.81-11.01-5.43-2.71-3.62-3.57-7.83-2.56-12.63Z"/>
    <path class="st3" d="M275.38,107.41l13.15-53.34h17.23l-12.95,53.34h-17.43Z"/>
    <path class="st3" d="M323.55,107.2c-5.05-.31-8.86-1.44-11.46-3.39-2.59-1.95-4.55-4.59-5.87-7.93-2.89-7.2-2.26-15.4,1.88-24.58,5.57-10.47,14.65-16.09,27.24-16.86h13.47l4.65-17.49h16.7l-12.47,50.42h-17.12l4.6-18.43h-8.56c-4.17.14-7.55,1.3-10.12,3.5-2.58,2.05-4.26,4.56-5.06,7.52-2.37,8.11.03,12.21,7.2,12.32h27.88l-3.65,15.14-29.28-.21Z"/>
    <path class="st3" d="M371.52,103.13c-2.61-1.98-4.58-4.68-5.9-8.09-2.96-7.41-2.33-15.71,1.88-24.9,5.64-10.23,14.75-15.57,27.35-16.02,3.06-.17,6.18-.14,9.35.1,5.15.45,9.05,1.71,11.69,3.79,2.65,2.07,4.65,4.81,6,8.22,2.96,7.45,2.33,15.75-1.88,24.9-5.6,10.27-14.89,15.66-27.88,16.18-2.64.17-5.64.12-8.98-.16-5.15-.7-9.03-2.04-11.64-4.02ZM406.39,81.94c1.08-3.97,1.12-6.99.11-9.08-1.01-2.09-3.5-3.31-7.46-3.65-5.15-.38-9.4.5-12.74,2.66-2.61,2.02-4.33,4.51-5.17,7.46-2.4,7.9.05,12.14,7.36,12.73,5.98.14,10.23-.75,12.74-2.66,2.61-1.98,4.33-4.47,5.17-7.46Z"/>
  </g>
  <g>
    <path class="st4" d="M170.68,150.14l1.71-6.96h13.14c1.4.12,2.23-.32,2.52-1.31.03-1.07-.77-1.56-2.42-1.46h-3.71c-2.56-.05-4.51-.87-5.85-2.47-1.36-1.62-1.78-3.83-1.26-6.63,1.48-4.88,5.21-7.14,11.2-6.79h13.97l-1.64,6.68h-13.59c-1.03-.05-1.61.32-1.77,1.11-.07.62.15,1.03.66,1.24.5.2,1.2.28,2.09.23l3.31-.1c3.11.1,5.17.98,6.18,2.65,1.01,1.65,1.28,3.86.81,6.63-1.03,4.98-4.44,7.37-10.24,7.19h-15.11Z"/>
    <path class="st4" d="M217.53,124.61c2.44.13,4.29.68,5.54,1.63,1.25.95,2.2,2.23,2.84,3.85,1.4,3.48,1.09,7.43-.91,11.86-2.69,5.08-7.08,7.8-13.17,8.17h-6.51l-2.4,9.51h-8.07l6.18-25.43h8.27l-2.22,8.91h4.14c2.02-.07,3.65-.63,4.89-1.69,1.24-1.01,2.06-2.22,2.45-3.63,1.14-3.92-.02-5.9-3.48-5.95h-3.86v-.03h-9.61l1.77-7.29,14.15.1Z"/>
    <path class="st4" d="M232.64,148.07c-1.26-.96-2.21-2.26-2.85-3.91-1.43-3.58-1.13-7.59.91-12.03,2.72-4.94,7.13-7.53,13.22-7.74,1.48-.08,2.98-.07,4.51.05,2.49.22,4.37.83,5.65,1.83s2.24,2.32,2.9,3.97c1.43,3.6,1.13,7.61-.91,12.03-2.71,4.96-7.2,7.57-13.47,7.82-1.28.08-2.72.06-4.34-.08-2.49-.34-4.37-.98-5.63-1.94ZM249.49,137.83c.52-1.92.54-3.38.05-4.39s-1.69-1.6-3.61-1.77c-2.49-.18-4.54.24-6.15,1.29-1.26.97-2.1,2.18-2.5,3.61-1.16,3.82.03,5.87,3.56,6.16,2.89.07,4.94-.36,6.15-1.29,1.26-.96,2.1-2.16,2.5-3.61Z"/>
    <path class="st4" d="M270.37,124.48h8.15l-1.87,7.32h-4.44c-.5,0-.97.18-1.39.53-.4.35-.67.8-.81,1.34l-4.01,16.47h-8.17l4.46-18.57c1.16-4.14,3.85-6.5,8.07-7.09Z"/>
    <path class="st4" d="M277.54,141.41l6.23-25.33h8.17c-1.38,5.4-2.09,8.19-2.14,8.37h6.03l-1.81,7.44h-6.01c-.44,1.8-.8,3.29-1.08,4.48-.29,1.19-.55,2.26-.78,3.23-.24.97-.38,1.57-.43,1.8-.05.42.05.8.3,1.14.25.34.6.5,1.06.5h4.24l-1.71,7.09h-5.5c-2.25,0-4.03-.87-5.32-2.62-1.31-1.75-1.73-3.78-1.24-6.11Z"/>
    <path class="st4" d="M292.95,150.14l1.71-6.96h13.14c1.4.12,2.24-.32,2.52-1.31.03-1.07-.77-1.56-2.42-1.46h-3.71c-2.56-.05-4.51-.87-5.85-2.47-1.36-1.62-1.78-3.83-1.26-6.63,1.48-4.88,5.21-7.14,11.2-6.79h13.97l-1.64,6.68h-13.6c-1.03-.05-1.61.32-1.77,1.11-.07.62.15,1.03.66,1.24.5.2,1.2.28,2.09.23l3.31-.1c3.11.1,5.17.98,6.18,2.65,1.01,1.65,1.28,3.86.81,6.63-1.03,4.98-4.44,7.37-10.24,7.19h-15.11Z"/>
  </g>
  <circle class="st1" cx="300.13" cy="39.68" r="8.35"/>
  <rect class="st1" x="72.79" y="144.19" width="82.88" height="4.42"/>
  <rect class="st1" x="331.59" y="144.19" width="47.15" height="4.42"/>
  <g>
    <circle class="st0" cx="530.79" cy="54.09" r="14.14"/>
    <path class="st0" d="M434.6,45.76l49.27,3.54s2.98.33,5.3,2.65,3.65,4.64,3.65,4.64c0,0,1.16,1.05,0,2.21s-7.73,4.53-7.73,4.53c0,0-.61.5-1.66-.55s-48.83-17.01-48.83-17.01Z"/>
    <path class="st0" d="M506.08,91.06l7.95-3.76s2.1-.99,3.54,1.44,3.98,8.06,3.98,8.06c0,0,.77.88,1.88,0s18.89-15.47,18.89-15.47l-20.77,26.29s-.99.66-1.99,0-13.48-16.57-13.48-16.57Z"/>
    <path class="st0" d="M466.31,113.26l17.23-10.61s1.44-1.1,3.98,0,27.29,15.91,27.29,15.91c0,0,7.29,4.97,1.33,8.4s-42.97,21.87-42.97,21.87l10.61,12.92-16.46-14.03,30.05-21.54s1.55-1.55-1.44-2.32-29.61-10.61-29.61-10.61Z"/>
    <path class="st2" d="M389.97,153.47h-1.77v-13.7s102.74-76,115.11-79.43,19.88,16.35,9.28,22.54c-10.61,6.19-110.03,55.35-114.23,58.11-4.2,2.76-4.75.44-8.4,12.48Z"/>
  </g>
</svg>