<?xml version="1.0" encoding="UTF-8"?>
<svg id="Layer_1" data-name="Layer 1" xmlns="http://www.w3.org/2000/svg" viewBox="0 0 1743.81 630.51">
  <defs>
    <style>
      .cls-1 {
        fill: #99ca3c;
      }

      .cls-2 {
        fill: #fff;
      }
    </style>
  </defs>
  <g>
    <path class="cls-2" d="M284.32,192.72c16.97.94,29.81,4.71,38.53,11.32,8.72,6.61,15.3,15.54,19.75,26.77,9.71,24.22,7.61,51.73-6.32,82.51-18.73,35.35-49.27,54.31-91.64,56.88h-45.3l-16.68,66.18h-56.18l43.01-176.96h57.58l-15.45,61.97h28.79c14.04-.47,25.39-4.39,34.05-11.76,8.66-7.02,14.34-15.45,17.03-25.28,7.96-27.27-.12-41.08-24.23-41.43h-26.86v-.17h-66.89l12.29-50.73,98.49.7Z"/>
    <path class="cls-2" d="M427.57,369.68c-16.97-1.05-29.82-4.85-38.54-11.41-8.72-6.55-15.3-15.45-19.75-26.68-9.71-24.23-7.61-51.79,6.32-82.68,18.72-35.23,49.27-54.13,91.64-56.71h101.82l-43.02,178.19-98.48-.7ZM495.68,259.79h-.17l4.4-18.78h-27.21c-14.63.24-26.39,4.16-35.29,11.76-8.66,6.91-14.34,15.33-17.03,25.28-7.96,27.27.12,41.08,24.23,41.43h36.86l14.22-59.69Z"/>
    <path class="cls-2" d="M637.18,191.85h56.7l-12.99,50.91h-30.9c-3.51,0-6.73,1.23-9.65,3.69-2.81,2.46-4.69,5.56-5.62,9.3l-27.91,114.64h-56.87l31.06-129.21c8.08-28.79,26.8-45.23,56.18-49.33Z"/>
    <path class="cls-2" d="M687.04,309.65l43.36-176.26h56.88c-9.6,37.57-14.58,57-14.92,58.29h41.96l-12.64,51.79h-41.79c-3.05,12.52-5.56,22.91-7.55,31.16-1.99,8.25-3.8,15.74-5.44,22.47-1.64,6.73-2.63,10.91-2.99,12.55-.35,2.93.36,5.56,2.11,7.9,1.75,2.34,4.21,3.51,7.37,3.51h29.49l-11.94,49.33h-38.27c-15.69,0-28.04-6.08-37.04-18.26-9.13-12.17-11.99-26.34-8.6-42.48Z"/>
    <path class="cls-2" d="M794.31,370.39l44.23-179.42h57.94l-43.54,179.42h-58.63Z"/>
    <path class="cls-2" d="M956.33,369.68c-16.97-1.05-29.81-4.85-38.53-11.41-8.73-6.55-15.31-15.45-19.76-26.68-9.71-24.23-7.61-51.79,6.32-82.68,18.72-35.23,49.27-54.13,91.63-56.71h45.3l15.63-58.81h56.17l-41.95,169.59h-57.59l15.46-61.97h-28.8c-14.04.47-25.4,4.39-34.05,11.76-8.67,6.91-14.34,15.33-17.03,25.28-7.96,27.27.12,41.08,24.22,41.43h93.75l-12.29,50.91-98.49-.7Z"/>
    <path class="cls-2" d="M1117.67,355.99c-8.77-6.67-15.39-15.74-19.83-27.21-9.95-24.93-7.85-52.84,6.32-83.74,18.96-34.41,49.62-52.37,91.99-53.9,10.3-.58,20.78-.46,31.43.35,17.32,1.52,30.43,5.77,39.32,12.73,8.9,6.96,15.63,16.18,20.19,27.65,9.95,25.05,7.84,52.96-6.32,83.74-18.85,34.53-50.1,52.67-93.75,54.42-8.89.58-18.95.41-30.19-.53-17.33-2.34-30.38-6.85-39.15-13.52ZM1234.94,284.72c3.63-13.34,3.75-23.52.36-30.55-3.4-7.02-11.76-11.12-25.11-12.29-17.33-1.29-31.6,1.7-42.84,8.95-8.77,6.79-14.57,15.16-17.38,25.11-8.07,26.57.18,40.85,24.76,42.83,20.12.47,34.41-2.51,42.84-8.95,8.77-6.67,14.57-15.04,17.37-25.1Z"/>
  </g>
  <g>
    <path class="cls-1" d="M442.18,514.09l5.77-23.42h44.21c4.7.4,7.52-1.07,8.48-4.41.12-3.62-2.6-5.26-8.14-4.92h-12.47c-8.6-.17-15.16-2.94-19.68-8.32-4.58-5.43-6-12.87-4.24-22.31,4.97-16.4,17.53-24.01,37.67-22.82h47l-5.51,22.48h-45.72c-3.45-.17-5.43,1.08-5.94,3.73-.23,2.09.51,3.48,2.21,4.16,1.7.68,4.04.94,7.04.77l11.12-.34c10.45.34,17.39,3.31,20.79,8.91,3.39,5.54,4.3,12.98,2.72,22.31-3.45,16.74-14.94,24.8-34.45,24.18h-50.82Z"/>
    <path class="cls-1" d="M599.74,428.22c8.2.45,14.41,2.28,18.63,5.47,4.21,3.2,7.39,7.51,9.54,12.94,4.7,11.71,3.67,25-3.06,39.88-9.05,17.08-23.81,26.24-44.29,27.49h-21.89l-8.06,31.99h-27.15l20.79-85.52h27.83l-7.46,29.95h13.91c6.79-.23,12.27-2.12,16.46-5.69,4.18-3.39,6.93-7.46,8.23-12.22,3.85-13.18-.06-19.85-11.7-20.02h-12.99v-.09h-32.33l5.94-24.52,47.6.34Z"/>
    <path class="cls-1" d="M650.56,507.13c-4.24-3.23-7.43-7.61-9.58-13.15-4.81-12.05-3.79-25.54,3.06-40.47,9.16-16.63,23.98-25.31,44.46-26.05,4.97-.28,10.04-.23,15.19.17,8.37.73,14.7,2.79,19,6.15,4.3,3.36,7.55,7.82,9.76,13.36,4.81,12.1,3.79,25.59-3.06,40.47-9.1,16.68-24.21,25.45-45.3,26.3-4.3.28-9.16.2-14.59-.26-8.38-1.13-14.68-3.31-18.93-6.53ZM707.23,472.68c1.75-6.45,1.81-11.37.17-14.76-1.64-3.39-5.68-5.38-12.13-5.94-8.38-.62-15.27.82-20.7,4.33-4.24,3.28-7.05,7.32-8.41,12.13-3.9,12.84.09,19.74,11.96,20.7,9.73.23,16.63-1.21,20.7-4.33,4.24-3.23,7.05-7.26,8.4-12.13Z"/>
    <path class="cls-1" d="M777.47,427.8h27.41l-6.28,24.6h-14.93c-1.7,0-3.26.59-4.67,1.78-1.36,1.19-2.27,2.69-2.72,4.49l-13.49,55.4h-27.49l15.01-62.44c3.9-13.92,12.96-21.86,27.15-23.84Z"/>
    <path class="cls-1" d="M801.57,484.73l20.96-85.18h27.49c-4.64,18.16-7.04,27.55-7.21,28.17h20.28l-6.1,25.03h-20.2c-1.47,6.05-2.68,11.07-3.64,15.06-.96,3.99-1.84,7.61-2.63,10.86-.79,3.25-1.27,5.27-1.44,6.06-.17,1.42.16,2.69,1.01,3.82.85,1.13,2.03,1.7,3.57,1.7h14.25l-5.77,23.84h-18.5c-7.58,0-13.55-2.94-17.89-8.82-4.42-5.89-5.8-12.73-4.17-20.54Z"/>
    <path class="cls-1" d="M853.41,514.09l5.77-23.42h44.21c4.7.4,7.52-1.07,8.48-4.41.12-3.62-2.6-5.26-8.15-4.92h-12.47c-8.6-.17-15.17-2.94-19.69-8.32-4.58-5.43-6-12.87-4.24-22.31,4.97-16.4,17.54-24.01,37.67-22.82h47l-5.51,22.48h-45.73c-3.45-.17-5.43,1.08-5.94,3.73-.22,2.09.51,3.48,2.21,4.16,1.7.68,4.04.94,7.04.77l11.12-.34c10.46.34,17.39,3.31,20.79,8.91,3.39,5.54,4.3,12.98,2.72,22.31-3.45,16.74-14.93,24.8-34.45,24.18h-50.82Z"/>
  </g>
  <circle class="cls-1" cx="877.55" cy="142.6" r="28.1"/>
  <rect class="cls-1" x="112.94" y="494.07" width="278.76" height="14.87"/>
  <rect class="cls-1" x="983.37" y="494.07" width="158.59" height="14.87"/>
  <g>
    <circle class="cls-2" cx="1653.33" cy="191.03" r="47.56"/>
    <path class="cls-2" d="M1329.84,163.04l165.71,11.89s10.03,1.11,17.83,8.92c7.8,7.8,12.26,15.6,12.26,15.6,0,0,3.9,3.53,0,7.43-3.9,3.9-26.01,15.23-26.01,15.23,0,0-2.04,1.67-5.57-1.86s-164.22-57.22-164.22-57.22Z"/>
    <path class="cls-2" d="M1570.23,315.38l26.75-12.63s7.06-3.34,11.89,4.83c4.83,8.17,13.38,27.12,13.38,27.12,0,0,2.6,2.97,6.32,0,3.72-2.97,63.53-52.02,63.53-52.02l-69.85,88.43s-3.34,2.23-6.69,0c-3.34-2.23-45.33-55.73-45.33-55.73Z"/>
    <path class="cls-2" d="M1436.47,390.06l57.96-35.67s4.83-3.72,13.38,0c8.55,3.72,91.77,53.5,91.77,53.5,0,0,24.52,16.72,4.46,28.24-20.06,11.52-144.53,73.57-144.53,73.57l35.67,43.47-55.36-47.19,101.06-72.45s5.2-5.2-4.83-7.8c-10.03-2.6-99.57-35.67-99.57-35.67Z"/>
    <path class="cls-1" d="M1179.74,525.3h-5.94v-46.07s345.54-255.62,387.15-267.14c41.61-11.52,66.88,54.99,31.21,75.8-35.67,20.81-370.06,186.14-384.18,195.43-14.12,9.29-15.98,1.49-28.24,41.98Z"/>
  </g>
</svg>